# xmcd
#
# Track frame offsets:
#	150
#	18115
#	36045
#	54700
#	68970
#	84465
#	104780
#	122742
#	140727
#	156475
#	174417
#	192760
#	210867
#
# Disc length: 3046
#
# Revision: 2
# Processed by: cddbd v1.5.1PL0 Copyright (c) Steve Scherf et al.
# Submitted via: CDmax 2.0
# Normalized: r1:TDELIM( - )
#
DISCID=b40be40d
DTITLE=Various Artist - Epic Records Group Instore Sampler - Summer 2002
DYEAR=1900
DGENRE=Misc
TTITLE0=Tori Amos - A Sorta Fairytale
TTITLE1=Howie Day - Ghost
TTITLE2=Nine Days - Good Friend
TTITLE3=Good Charlotte - Lifestyles of the Rich and Famous
TTITLE4=Kelly Osbourne - Papa Don't Preach
TTITLE5=The Julianna Theory - Do You Believe Me?
TTITLE6=Chevelle - The Red
TTITLE7=The Shining - Quicksilver
TTITLE8=Kazzer - Pedal To The Metal
TTITLE9=3LW - I Do (Wanna Get Closer To You)
TTITLE10=Fabolous - Trade It All Part 2
TTITLE11=Ginuwine - Stingy
TTITLE12=Bone Thugs-N-Harmony - Get Up and Get It
EXTD=
EXTT0=
EXTT1=
EXTT2=
EXTT3=
EXTT4=
EXTT5=
EXTT6=
EXTT7=
EXTT8=
EXTT9=
EXTT10=
EXTT11=
EXTT12=
PLAYORDER=
